<svg xmlns="http://www.w3.org/2000/svg" style="isolation:isolate" viewBox="0 0 64 64" width="64" height="64"><defs><clipPath id="a"><path d="M0 0h64v64H0z"/></clipPath></defs><g clip-path="url(#a)"><text transform="translate(20.93 56.757)" font-family="Open Sans" font-weight="600" font-size="11" fill="#fff">Buy</text><path d="M12.5 5.992v3.9h4.45l5.12 15.24-2.926 3.9h-.06c-.854 1.22-.97 2.81-.305 4.143.686 1.278 2.02 2.075 3.473 2.073h25.355v-3.9H22.253c.007-.01-.024-.032 0-.06l2.925-3.842h18.345c.78 0 1.57-.38 1.77-1.158l6.032-13.653c.274-.6.223-1.3-.135-1.853-.357-.555-.972-.89-1.632-.89h-1.16l-6.03 13.654H25.604L20.18 7.332l-.428-1.34h-7.25zm19.504 0v7.802h-3.9l5.85 7.8 5.852-7.8h-3.9V5.992h-3.902zm-9.75 31.206c-2.156 0-3.902 1.747-3.902 3.9 0 2.156 1.746 3.902 3.9 3.902 2.155 0 3.9-1.746 3.9-3.9 0-2.155-1.745-3.902-3.9-3.902zm21.453 0c-2.155 0-3.9 1.747-3.9 3.9 0 2.156 1.745 3.902 3.9 3.902 2.154 0 3.9-1.746 3.9-3.9 0-2.155-1.746-3.902-3.9-3.902z" fill="#FFF"/></g></svg>