<?xml version="1.0" standalone="no"?><!-- Generator: Gravit.io --><svg xmlns="http://www.w3.org/2000/svg" xmlns:xlink="http://www.w3.org/1999/xlink" style="isolation:isolate" viewBox="0 0 64 64" width="64" height="64"><defs><clipPath id="_clipPath_NDA6qauj50HkqgEENTwZeczOyuYyqT4U"><rect width="64" height="64"/></clipPath></defs><g clip-path="url(#_clipPath_NDA6qauj50HkqgEENTwZeczOyuYyqT4U)"><g transform="matrix(1,0,0,1,0,45)"><text transform="matrix(1,0,0,1,20.929,11.757)" style="font-family:&quot;Open Sans&quot;;font-weight:600;font-size:11px;font-style:normal;fill:#000000;stroke:none;">Buy</text></g><path d=" M 12.501 5.992 L 12.501 9.893 L 16.949 9.893 L 22.069 25.131 L 19.144 29.032 L 19.083 29.032 C 18.23 30.253 18.113 31.843 18.779 33.175 C 19.466 34.453 20.801 35.25 22.253 35.248 L 47.608 35.248 L 47.608 31.347 L 22.253 31.347 C 22.26 31.339 22.229 31.316 22.253 31.287 L 25.178 27.446 L 43.523 27.446 C 44.302 27.446 45.094 27.066 45.292 26.288 L 51.325 12.635 C 51.599 12.035 51.548 11.336 51.19 10.782 C 50.833 10.227 50.218 9.892 49.558 9.893 L 48.399 9.893 L 42.367 23.546 L 25.605 23.546 L 20.181 7.332 L 19.752 5.992 L 12.501 5.992 Z  M 32.004 5.992 L 32.004 13.794 L 28.104 13.794 L 33.955 21.595 L 39.806 13.794 L 35.905 13.794 L 35.905 5.992 L 32.004 5.992 Z  M 22.253 37.198 C 20.098 37.198 18.352 38.945 18.352 41.099 C 18.352 43.254 20.098 45 22.253 45 C 24.407 45 26.153 43.254 26.153 41.099 C 26.153 38.945 24.407 37.198 22.253 37.198 Z  M 43.707 37.198 C 41.552 37.198 39.806 38.945 39.806 41.099 C 39.806 43.254 41.552 45 43.707 45 C 45.861 45 47.608 43.254 47.608 41.099 C 47.608 38.945 45.861 37.198 43.707 37.198 Z " fill="rgb(0,0,0)"/></g></svg>