<?xml version="1.0" standalone="no"?><!-- Generator: Gravit.io --><svg xmlns="http://www.w3.org/2000/svg" xmlns:xlink="http://www.w3.org/1999/xlink" style="isolation:isolate" viewBox="0 0 64 64" width="64" height="64"><defs><clipPath id="_clipPath_OQOTCXyy389AsrTil1VojKI39186zA41"><rect width="64" height="64"/></clipPath></defs><g clip-path="url(#_clipPath_OQOTCXyy389AsrTil1VojKI39186zA41)"><g transform="matrix(1,0,0,1,0,45)"><text transform="matrix(1,0,0,1,18.74,11.757)" style="font-family:&quot;Open Sans&quot;;font-weight:600;font-size:11px;font-style:normal;fill:#ffffff;stroke:none;">Hide</text></g><path d=" M 12.905 4 L 10.667 6.237 L 22.134 17.704 C 22.128 17.717 22.141 17.74 22.134 17.753 L 24.37 19.939 C 24.364 19.951 24.377 19.976 24.37 19.987 L 27.771 23.341 C 27.765 23.353 27.777 23.377 27.771 23.389 L 51.094 46.664 L 53.329 44.428 L 43.612 34.71 C 49.885 31.291 53.474 26.256 53.474 26.256 L 54.11 25.331 L 53.477 24.407 C 53.477 24.407 45.908 13.841 33.555 12.989 C 32.554 12.861 31.542 12.861 30.542 12.989 C 28.112 13.142 25.72 13.666 23.448 14.543 L 12.905 4 Z  M 32 16.002 C 37.145 16.002 41.329 20.186 41.329 25.331 C 41.329 27.337 40.71 29.199 39.628 30.725 L 36.229 27.275 C 36.518 26.667 36.667 26.003 36.666 25.331 C 36.666 22.755 34.578 20.666 32.002 20.666 C 31.297 20.666 30.653 20.825 30.058 21.103 L 26.608 17.703 C 27.807 16.858 29.189 16.309 30.641 16.1 C 31.097 16.069 31.534 16.002 32.002 16.002 L 32 16.002 Z  M 17.666 17.655 C 13.208 20.746 10.663 24.219 10.524 24.407 L 9.89 25.331 L 10.523 26.255 C 10.849 26.71 18.314 36.84 30.444 37.672 C 30.954 37.739 31.47 37.77 31.998 37.77 C 32.423 37.77 32.838 37.745 33.263 37.722 C 33.347 37.715 33.42 37.684 33.505 37.672 C 34.732 37.59 35.95 37.412 37.148 37.139 L 34.477 34.466 L 34.427 34.466 L 34.331 34.368 C 33.57 34.567 32.786 34.665 32 34.66 C 31.659 34.66 31.314 34.629 30.98 34.612 C 26.303 34.114 22.671 30.134 22.671 25.331 C 22.671 24.518 22.763 23.751 22.963 22.999 L 20.533 20.52 C 19.889 22.042 19.559 23.678 19.561 25.331 C 19.561 27.621 20.224 29.753 21.31 31.599 C 18.478 29.93 15.935 27.813 13.779 25.331 C 15.566 23.251 17.626 21.42 19.902 19.889 L 17.666 17.655 Z  M 42.641 18.965 C 46.808 21.377 49.4 24.516 50.075 25.379 C 49.206 26.468 46.826 29.339 42.69 31.697 C 43.838 29.772 44.442 27.572 44.439 25.331 C 44.439 22.999 43.758 20.83 42.641 18.965 Z " fill="rgb(255,255,255)"/></g></svg>
