<?xml version="1.0" standalone="no"?><!-- Generator: Gravit.io --><svg xmlns="http://www.w3.org/2000/svg" xmlns:xlink="http://www.w3.org/1999/xlink" style="isolation:isolate" viewBox="0 0 64 64" width="64" height="64"><defs><clipPath id="_clipPath_0GDdQGEUWL4LfWbeQoqN2ziXf1rCkKF1"><rect width="64" height="64"/></clipPath></defs><g clip-path="url(#_clipPath_0GDdQGEUWL4LfWbeQoqN2ziXf1rCkKF1)"><g transform="matrix(1,0,0,1,0,45)"><text transform="matrix(1,0,0,1,12.177,11.757)" style="font-family:&quot;Open Sans&quot;;font-weight:600;font-size:11px;font-style:normal;fill:#ffffff;stroke:none;">Review</text></g><path d=" M 31.883 0.409 C 31.538 0.45 31.243 0.677 31.115 1 L 25.212 15.639 L 9.481 16.73 C 9.105 16.768 8.786 17.024 8.669 17.384 C 8.556 17.742 8.666 18.137 8.95 18.383 L 21.051 28.507 L 17.214 43.825 C 17.119 44.198 17.261 44.592 17.572 44.82 C 17.885 45.045 18.302 45.06 18.63 44.858 L 32.001 36.475 L 45.37 44.858 C 45.699 45.06 46.116 45.046 46.429 44.82 C 46.739 44.592 46.882 44.197 46.788 43.825 L 42.95 28.507 L 55.05 18.383 C 55.334 18.137 55.445 17.741 55.33 17.384 C 55.214 17.024 54.895 16.767 54.518 16.73 L 38.787 15.639 L 32.885 1 C 32.727 0.595 32.313 0.351 31.883 0.409 Z  M 32.001 3.922 L 37.224 16.908 C 37.361 17.248 37.686 17.479 38.051 17.498 L 52.012 18.443 L 41.268 27.444 C 40.988 27.684 40.873 28.064 40.973 28.418 L 44.397 42.025 L 32.502 34.557 C 32.195 34.365 31.806 34.365 31.499 34.557 L 19.605 42.025 L 23.028 28.417 C 23.128 28.062 23.013 27.682 22.733 27.443 L 11.991 18.443 L 25.95 17.498 C 26.315 17.479 26.64 17.247 26.777 16.908 L 32.001 3.922 Z " fill="rgb(255,255,255)"/></g></svg>
