<?xml version="1.0" standalone="no"?><!-- Generator: Gravit.io --><svg xmlns="http://www.w3.org/2000/svg" xmlns:xlink="http://www.w3.org/1999/xlink" style="isolation:isolate" viewBox="0 0 64 64" width="64" height="64"><defs><clipPath id="_clipPath_I7hDhGuSdIG4RtqH36YNjiJGKF1Fuhkg"><rect width="64" height="64"/></clipPath></defs><g clip-path="url(#_clipPath_I7hDhGuSdIG4RtqH36YNjiJGKF1Fuhkg)"><g transform="matrix(1,0,0,1,0,45)"><text transform="matrix(1,0,0,1,5.581,11.757)" style="font-family:&quot;Open Sans&quot;;font-weight:600;font-size:11px;font-style:normal;fill:#000000;stroke:none;">Reviewed</text></g><path d=" M 18.875 5 C 15.791 5 13.25 7.541 13.25 10.625 L 13.25 36.875 C 13.25 39.959 15.791 42.5 18.875 42.5 L 45.125 42.5 C 48.209 42.5 50.75 39.959 50.75 36.875 L 50.75 21.875 L 47 21.875 L 47 36.875 C 47 37.916 46.166 38.75 45.125 38.75 L 18.875 38.75 C 17.834 38.75 17 37.916 17 36.875 L 17 10.625 C 17 9.584 17.834 8.75 18.875 8.75 L 35.75 8.75 L 35.75 5 L 18.875 5 Z  M 47.879 8.574 L 30.418 27.031 L 23.563 20.176 L 20.926 22.813 L 30.536 32.422 L 31.884 31.016 L 50.634 11.152 L 47.879 8.574 Z " fill="rgb(0,0,0)"/></g></svg>