<?xml version="1.0" standalone="no"?><!-- Generator: Gravit.io --><svg xmlns="http://www.w3.org/2000/svg" xmlns:xlink="http://www.w3.org/1999/xlink" style="isolation:isolate" viewBox="0 0 64 64" width="64" height="64"><defs><clipPath id="_clipPath_WZzupJlmdzT9IldP0VclaCKwIvTuPtyP"><rect width="64" height="64"/></clipPath></defs><g clip-path="url(#_clipPath_WZzupJlmdzT9IldP0VclaCKwIvTuPtyP)"><g transform="matrix(1,0,0,1,0,45)"><text transform="matrix(1,0,0,1,13.657,11.757)" style="font-family:&quot;Open Sans&quot;;font-weight:600;font-size:11px;font-style:normal;fill:#000000;stroke:none;">Selling</text></g><path d=" M 27.189 31.806 C 28.112 32.787 29.262 33.42 30.633 33.689 L 30.633 24.33 C 30.482 24.271 30.282 24.209 30.034 24.13 C 29.758 24.054 29.481 23.987 29.201 23.93 C 28.099 23.63 27.01 23.279 25.929 22.879 C 24.89 22.494 23.917 21.95 23.046 21.265 C 22.191 20.589 21.497 19.732 21.015 18.754 C 20.505 17.765 20.254 16.512 20.254 15.021 C 20.254 13.502 20.546 12.159 21.125 10.998 C 21.706 9.828 22.475 8.856 23.428 8.067 C 24.412 7.26 25.534 6.639 26.741 6.235 C 27.997 5.795 29.307 5.529 30.636 5.444 L 30.636 2 L 33.275 2 L 33.275 5.456 C 34.566 5.595 35.837 5.888 37.059 6.328 C 38.23 6.758 39.27 7.358 40.159 8.121 C 41.061 8.88 41.794 9.82 42.353 10.96 C 42.924 12.092 43.254 13.433 43.344 14.983 L 36.99 14.983 C 36.959 13.794 36.588 12.774 35.868 11.941 C 35.158 11.101 34.287 10.681 33.275 10.681 L 33.275 18.608 L 34.366 18.877 C 34.748 18.969 35.135 19.069 35.558 19.187 C 37.769 19.789 39.46 20.53 40.662 21.401 C 41.853 22.28 42.734 23.202 43.293 24.153 C 43.864 25.114 44.195 26.064 44.305 27.015 C 44.407 27.976 44.466 28.826 44.466 29.567 C 44.466 30.228 44.295 31.048 43.964 32.049 C 43.644 33.049 43.055 34.03 42.204 34.983 C 41.353 35.944 40.211 36.795 38.781 37.535 C 37.349 38.286 35.506 38.724 33.275 38.875 L 33.275 42.677 L 30.636 42.677 L 30.636 38.875 C 27.289 38.634 24.689 37.615 22.806 35.793 C 20.925 33.971 19.833 31.299 19.534 27.786 L 25.849 27.786 C 25.819 29.477 26.259 30.82 27.189 31.809 L 27.189 31.806 Z  M 29.162 10.909 C 28.689 11.056 28.248 11.291 27.861 11.601 C 27.474 11.917 27.159 12.313 26.938 12.761 C 26.71 13.274 26.598 13.83 26.61 14.391 C 26.61 15.382 26.918 16.143 27.551 16.684 C 28.171 17.214 29.203 17.645 30.633 17.975 L 30.633 10.678 C 30.121 10.678 29.634 10.758 29.162 10.909 Z  M 34.958 33.307 C 35.537 33.108 36.06 32.839 36.518 32.477 C 36.98 32.119 37.359 31.675 37.659 31.155 C 37.971 30.586 38.127 29.944 38.11 29.295 C 38.11 28.134 37.741 27.263 37.008 26.682 C 36.278 26.103 35.035 25.572 33.275 25.093 L 33.275 33.689 C 33.805 33.628 34.366 33.497 34.958 33.307 Z " fill="rgb(0,0,0)"/></g></svg>