<?xml version="1.0" standalone="no"?><!-- Generator: Gravit.io --><svg xmlns="http://www.w3.org/2000/svg" xmlns:xlink="http://www.w3.org/1999/xlink" style="isolation:isolate" viewBox="0 0 64 64" width="64" height="64"><defs><clipPath id="_clipPath_EBQNdP0LwmPAX0HskpSoPhDmVq84P7RM"><rect width="64" height="64"/></clipPath></defs><g clip-path="url(#_clipPath_EBQNdP0LwmPAX0HskpSoPhDmVq84P7RM)"><g transform="matrix(1,0,0,1,0,45)"><text transform="matrix(1,0,0,1,8.817,11.757)" style="font-family:&quot;Open Sans&quot;;font-weight:600;font-size:11px;font-style:normal;fill:#000000;stroke:none;">Sell DVD</text></g><path d=" M 32 2 C 26.809 2 21.926 4.021 18.246 7.693 C 14.582 11.372 12.553 16.255 12.553 21.447 C 12.553 26.638 14.574 31.521 18.246 35.2 C 21.918 38.872 26.801 40.893 32 40.893 C 37.199 40.893 42.074 38.872 45.754 35.2 C 49.426 31.529 51.447 26.646 51.447 21.447 C 51.447 16.247 49.426 11.372 45.754 7.701 C 42.082 4.029 37.199 2 32 2 Z  M 32 39.042 C 22.296 39.042 14.405 31.151 14.405 21.447 C 14.405 11.743 22.304 3.851 32 3.851 C 41.704 3.851 49.595 11.743 49.595 21.447 C 49.595 31.151 41.704 39.042 32 39.042 Z  M 32 5.71 L 32 7.562 C 39.66 7.562 45.893 13.794 45.893 21.454 L 47.744 21.454 C 47.744 12.769 40.686 5.71 32 5.71 L 32 5.71 Z  M 32 9.413 L 32 11.264 C 37.616 11.264 42.19 15.831 42.19 21.454 L 44.041 21.454 C 44.041 14.813 38.642 9.413 32 9.413 L 32 9.413 Z  M 32 13.116 L 32 14.967 C 35.572 14.967 38.48 17.875 38.48 21.447 L 40.331 21.447 C 40.339 16.857 36.597 13.116 32 13.116 Z  M 18.115 21.447 L 16.264 21.447 C 16.264 30.125 23.322 37.191 32.008 37.191 L 32.008 35.339 C 24.34 35.339 18.115 29.106 18.115 21.447 L 18.115 21.447 Z  M 21.818 21.447 L 19.966 21.447 C 19.966 28.08 25.366 33.488 32.008 33.488 L 32.008 31.637 C 26.384 31.637 21.818 27.07 21.818 21.447 L 21.818 21.447 Z  M 25.52 21.447 L 23.669 21.447 C 23.669 26.044 27.41 29.778 32 29.778 L 32 27.926 C 28.428 27.934 25.52 25.026 25.52 21.447 Z  M 32 16.818 C 29.447 16.818 27.372 18.893 27.372 21.447 C 27.372 24 29.447 26.075 32 26.075 C 34.553 26.075 36.628 24 36.628 21.447 C 36.628 18.893 34.553 16.818 32 16.818 Z  M 32 24.231 C 30.465 24.231 29.223 22.982 29.223 21.454 C 29.223 19.919 30.473 18.677 32 18.677 C 33.535 18.677 34.777 19.927 34.777 21.454 C 34.785 22.982 33.535 24.231 32 24.231 Z " fill="rgb(0,0,0)"/></g></svg>