<?xml version="1.0" standalone="no"?><!-- Generator: Gravit.io --><svg xmlns="http://www.w3.org/2000/svg" xmlns:xlink="http://www.w3.org/1999/xlink" style="isolation:isolate" viewBox="0 0 64 64" width="64" height="64"><defs><clipPath id="_clipPath_4kexviFEEUt7wkEVbfS8bSCrAJAUYXYt"><rect width="64" height="64"/></clipPath></defs><g clip-path="url(#_clipPath_4kexviFEEUt7wkEVbfS8bSCrAJAUYXYt)"><g transform="matrix(1,0,0,1,0,45)"><text transform="matrix(1,0,0,1,9.027,11.757)" style="font-family:&quot;Open Sans&quot;;font-weight:600;font-size:11px;font-style:normal;fill:#000000;stroke:none;">On Shelf</text></g><path d=" M 16.231 7 L 16.231 32.231 L 11.5 32.231 L 11.5 35.385 L 16.231 35.385 L 16.231 41.692 L 19.385 41.692 L 19.385 35.385 L 44.615 35.385 L 44.615 41.692 L 47.769 41.692 L 47.769 35.385 L 52.5 35.385 L 52.5 32.231 L 44.615 32.231 L 46.143 31.837 L 41.413 12.913 L 38.357 13.702 L 42.991 32.231 L 38.308 32.231 L 38.308 11.731 L 32 11.731 L 32 7 L 16.231 7 Z  M 19.385 10.154 L 22.538 10.154 L 22.538 32.231 L 19.385 32.231 L 19.385 10.154 Z  M 25.692 10.154 L 28.846 10.154 L 28.846 32.231 L 25.692 32.231 L 25.692 10.154 Z  M 32 14.885 L 35.154 14.885 L 35.154 32.231 L 32 32.231 L 32 14.885 Z " fill="rgb(0,0,0)"/></g></svg>