<?xml version="1.0" standalone="no"?><!-- Generator: Gravit.io --><svg xmlns="http://www.w3.org/2000/svg" xmlns:xlink="http://www.w3.org/1999/xlink" style="isolation:isolate" viewBox="0 0 64 64" width="64" height="64"><defs><clipPath id="_clipPath_B60jDFj4VUq1nv07w79wHLJMkbAdtkt0"><rect width="64" height="64"/></clipPath></defs><g clip-path="url(#_clipPath_B60jDFj4VUq1nv07w79wHLJMkbAdtkt0)"><g transform="matrix(1,0,0,1,0,31)"><text transform="matrix(1,0,0,1,13.56,11.757)" style="font-family:&quot;Open Sans&quot;;font-weight:600;font-size:11px;font-style:normal;fill:#ffffff;stroke:none;">Add to </text><text transform="matrix(1,0,0,1,10.19,26.737)" style="font-family:&quot;Open Sans&quot;;font-weight:600;font-size:11px;font-style:normal;fill:#ffffff;stroke:none;">Wishlist</text></g><g id="Group"><path d=" M 20.127 8.104 L 17.333 8.104 L 17.333 10.79 L 20.127 10.79 L 20.127 8.104 Z  M 46.667 8.776 L 22.921 8.776 L 22.921 10.118 L 46.667 10.118 L 46.667 8.776 Z  M 17.333 16.159 L 20.127 16.159 L 20.127 18.843 L 17.333 18.843 L 17.333 16.159 Z  M 46.667 16.829 L 22.921 16.829 L 22.921 18.171 L 46.667 18.171 L 46.667 16.829 Z  M 17.333 24.212 L 20.127 24.212 L 20.127 26.896 L 17.333 26.896 L 17.333 24.212 Z  M 46.667 24.883 L 22.921 24.883 L 22.921 26.224 L 46.667 26.224 L 46.667 24.883 Z " fill-rule="evenodd" fill="rgb(255,255,255)"/><rect x="10" y="-3" width="44" height="41" transform="matrix(1,0,0,1,0,0)" fill="none"/></g></g></svg>
